<?xml version="1.0" encoding="utf-8"?>
<!-- Generated by IcoMoon.io -->
<!DOCTYPE svg PUBLIC "-//W3C//DTD SVG 1.1//EN" "http://www.w3.org/Graphics/SVG/1.1/DTD/svg11.dtd">
<svg version="1.1" xmlns="http://www.w3.org/2000/svg" xmlns:xlink="http://www.w3.org/1999/xlink" width="74" height="578" viewBox="0 0 74 578">
<svg id="icon-phone" width="32" height="32" viewBox="0 0 32 32" x="0" y="0">
<path fill="#dbdbdb" d="M20.172 5.873h-8.629c-1.301 0-2.362 1.058-2.362 2.362v14.748c0 1.301 1.058 2.362 2.362 2.362h8.626c1.301 0 2.362-1.058 2.362-2.362v-14.748c0-1.301-1.058-2.362-2.358-2.362zM21.262 22.983c0 0.601-0.489 1.090-1.090 1.090h-8.629c-0.601 0-1.090-0.489-1.090-1.090v-14.748c0-0.601 0.489-1.090 1.090-1.090h8.626c0.601 0 1.090 0.489 1.090 1.090v14.748z"></path>
<path fill="#dbdbdb" d="M16.466 22.208h-1.217c-0.337 0-0.609 0.272-0.609 0.609s0.272 0.609 0.609 0.609h1.217c0.337 0 0.609-0.272 0.609-0.609s-0.272-0.609-0.609-0.609z"></path>
<path fill="#dbdbdb" d="M15.857 0.141c-8.745 0-15.857 7.115-15.857 15.861s7.112 15.857 15.857 15.857c1.862 0 3.688-0.319 5.423-0.953 2.156-0.783 4.159-2.061 5.789-3.692 1.456-1.456 2.601-3.152 3.398-5.039 0.826-1.956 1.246-4.032 1.246-6.173 0-8.745-7.111-15.861-15.857-15.861zM29.297 21.679c-0.735 1.735-1.786 3.297-3.126 4.637-1.5 1.5-3.344 2.674-5.325 3.398-1.598 0.58-3.275 0.877-4.989 0.877-8.043-0.004-14.589-6.546-14.589-14.589s6.546-14.589 14.589-14.589 14.589 6.543 14.589 14.589c0 1.967-0.388 3.876-1.148 5.677z"></path>
</svg>
<svg id="icon-phone-red" width="32" height="32" viewBox="0 0 32 32" x="42" y="0">
<path fill="#ff8a10" d="M20.172 5.873h-8.629c-1.301 0-2.362 1.058-2.362 2.362v14.748c0 1.301 1.058 2.362 2.362 2.362h8.626c1.301 0 2.362-1.058 2.362-2.362v-14.748c0-1.301-1.058-2.362-2.358-2.362zM21.262 22.983c0 0.601-0.489 1.090-1.090 1.090h-8.629c-0.601 0-1.090-0.489-1.090-1.090v-14.748c0-0.601 0.489-1.090 1.090-1.090h8.626c0.601 0 1.090 0.489 1.090 1.090v14.748z"></path>
<path fill="#ff8a10" d="M16.466 22.208h-1.217c-0.337 0-0.609 0.272-0.609 0.609s0.272 0.609 0.609 0.609h1.217c0.337 0 0.609-0.272 0.609-0.609s-0.272-0.609-0.609-0.609z"></path>
<path fill="#ff8a10" d="M15.857 0.141c-8.745 0-15.857 7.115-15.857 15.861s7.112 15.857 15.857 15.857c1.862 0 3.688-0.319 5.423-0.953 2.156-0.783 4.159-2.061 5.789-3.692 1.456-1.456 2.601-3.152 3.398-5.039 0.826-1.956 1.246-4.032 1.246-6.173 0-8.745-7.111-15.861-15.857-15.861zM29.297 21.679c-0.735 1.735-1.786 3.297-3.126 4.637-1.5 1.5-3.344 2.674-5.325 3.398-1.598 0.58-3.275 0.877-4.989 0.877-8.043-0.004-14.589-6.546-14.589-14.589s6.546-14.589 14.589-14.589 14.589 6.543 14.589 14.589c0 1.967-0.388 3.876-1.148 5.677z"></path>
</svg>
<svg id="icon-idinfo" width="32" height="32" viewBox="0 0 32 32" x="0" y="42">
<path fill="#dbdbdb" d="M26.548 20.396c-0.351 0-0.634 0.283-0.634 0.634 0 0.898-0.728 1.627-1.627 1.627h-16.857c-0.898 0-1.627-0.728-1.627-1.627 0-0.351-0.283-0.634-0.634-0.634s-0.634 0.283-0.634 0.634c0 1.598 1.301 2.895 2.895 2.895h16.857c1.598 0 2.895-1.301 2.895-2.895 0-0.351-0.286-0.634-0.634-0.634z"></path>
<path fill="#dbdbdb" d="M7.43 8.072c-1.598 0-2.895 1.301-2.895 2.895v1.388c0 0.351 0.283 0.634 0.634 0.634s0.634-0.283 0.634-0.634v-1.388c0-0.898 0.728-1.627 1.627-1.627h16.857c0.898 0 1.627 0.728 1.627 1.627v1.388c0 0.351 0.283 0.634 0.634 0.634s0.634-0.283 0.634-0.634v-1.388c0-1.598-1.301-2.895-2.895-2.895h-16.857z"></path>
<path fill="#dbdbdb" d="M6.988 18.766c0 0.351 0.283 0.634 0.634 0.634s0.634-0.283 0.634-0.634c0-0.895 0.728-1.623 1.623-1.623s1.623 0.728 1.623 1.623c0 0.351 0.283 0.634 0.634 0.634s0.634-0.283 0.634-0.634c0-1.083-0.598-2.029-1.482-2.521 0.42-0.384 0.681-0.935 0.681-1.547 0-1.156-0.938-2.094-2.094-2.094s-2.094 0.938-2.094 2.094c0 0.612 0.264 1.163 0.681 1.547-0.877 0.493-1.474 1.438-1.474 2.521zM9.879 13.872c0.456 0 0.826 0.37 0.826 0.826s-0.37 0.826-0.826 0.826c-0.456 0-0.826-0.37-0.826-0.826s0.37-0.826 0.826-0.826z"></path>
<path fill="#dbdbdb" d="M14.984 14.125h8.843c0.351 0 0.634-0.283 0.634-0.634s-0.283-0.634-0.634-0.634h-8.843c-0.351 0-0.634 0.283-0.634 0.634s0.283 0.634 0.634 0.634z"></path>
<path fill="#dbdbdb" d="M14.984 16.534h8.843c0.351 0 0.634-0.283 0.634-0.634s-0.283-0.634-0.634-0.634h-8.843c-0.351 0-0.634 0.283-0.634 0.634 0 0.348 0.283 0.634 0.634 0.634z"></path>
<path fill="#dbdbdb" d="M14.984 19.143h8.843c0.351 0 0.634-0.283 0.634-0.634s-0.283-0.634-0.634-0.634h-8.843c-0.351 0-0.634 0.283-0.634 0.634 0 0.348 0.283 0.634 0.634 0.634z"></path>
<path fill="#dbdbdb" d="M15.857 0.152c-8.738 0-15.85 7.112-15.85 15.85s7.112 15.85 15.85 15.85c1.862 0 3.684-0.319 5.423-0.953 2.156-0.786 4.155-2.061 5.786-3.692 1.456-1.456 2.598-3.152 3.398-5.039 0.826-1.956 1.246-4.032 1.246-6.17-0.004-8.738-7.115-15.846-15.853-15.846zM29.294 21.675c-0.735 1.735-1.786 3.297-3.126 4.637-1.5 1.5-3.34 2.674-5.322 3.395-1.598 0.58-3.275 0.873-4.989 0.873-8.039 0-14.582-6.543-14.582-14.582s6.543-14.578 14.582-14.578 14.582 6.543 14.582 14.582c0 1.967-0.384 3.876-1.145 5.673z"></path>
</svg>
<svg id="icon-idinfo-red" width="32" height="32" viewBox="0 0 32 32" x="42" y="42">
<path fill="#ff8a10" d="M26.548 20.396c-0.351 0-0.634 0.283-0.634 0.634 0 0.898-0.728 1.627-1.627 1.627h-16.857c-0.898 0-1.627-0.728-1.627-1.627 0-0.351-0.283-0.634-0.634-0.634s-0.634 0.283-0.634 0.634c0 1.598 1.301 2.895 2.895 2.895h16.857c1.598 0 2.895-1.301 2.895-2.895 0-0.351-0.286-0.634-0.634-0.634z"></path>
<path fill="#ff8a10" d="M7.43 8.072c-1.598 0-2.895 1.301-2.895 2.895v1.388c0 0.351 0.283 0.634 0.634 0.634s0.634-0.283 0.634-0.634v-1.388c0-0.898 0.728-1.627 1.627-1.627h16.857c0.898 0 1.627 0.728 1.627 1.627v1.388c0 0.351 0.283 0.634 0.634 0.634s0.634-0.283 0.634-0.634v-1.388c0-1.598-1.301-2.895-2.895-2.895h-16.857z"></path>
<path fill="#ff8a10" d="M6.988 18.766c0 0.351 0.283 0.634 0.634 0.634s0.634-0.283 0.634-0.634c0-0.895 0.728-1.623 1.623-1.623s1.623 0.728 1.623 1.623c0 0.351 0.283 0.634 0.634 0.634s0.634-0.283 0.634-0.634c0-1.083-0.598-2.029-1.482-2.521 0.42-0.384 0.681-0.935 0.681-1.547 0-1.156-0.938-2.094-2.094-2.094s-2.094 0.938-2.094 2.094c0 0.612 0.264 1.163 0.681 1.547-0.877 0.493-1.474 1.438-1.474 2.521zM9.879 13.872c0.456 0 0.826 0.37 0.826 0.826s-0.37 0.826-0.826 0.826c-0.456 0-0.826-0.37-0.826-0.826s0.37-0.826 0.826-0.826z"></path>
<path fill="#ff8a10" d="M14.984 14.125h8.843c0.351 0 0.634-0.283 0.634-0.634s-0.283-0.634-0.634-0.634h-8.843c-0.351 0-0.634 0.283-0.634 0.634s0.283 0.634 0.634 0.634z"></path>
<path fill="#ff8a10" d="M14.984 16.534h8.843c0.351 0 0.634-0.283 0.634-0.634s-0.283-0.634-0.634-0.634h-8.843c-0.351 0-0.634 0.283-0.634 0.634 0 0.348 0.283 0.634 0.634 0.634z"></path>
<path fill="#ff8a10" d="M14.984 19.143h8.843c0.351 0 0.634-0.283 0.634-0.634s-0.283-0.634-0.634-0.634h-8.843c-0.351 0-0.634 0.283-0.634 0.634 0 0.348 0.283 0.634 0.634 0.634z"></path>
<path fill="#ff8a10" d="M15.857 0.152c-8.738 0-15.85 7.112-15.85 15.85s7.112 15.85 15.85 15.85c1.862 0 3.684-0.319 5.423-0.953 2.156-0.786 4.155-2.061 5.786-3.692 1.456-1.456 2.598-3.152 3.398-5.039 0.826-1.956 1.246-4.032 1.246-6.17-0.004-8.738-7.115-15.846-15.853-15.846zM29.294 21.675c-0.735 1.735-1.786 3.297-3.126 4.637-1.5 1.5-3.34 2.674-5.322 3.395-1.598 0.58-3.275 0.873-4.989 0.873-8.039 0-14.582-6.543-14.582-14.582s6.543-14.578 14.582-14.578 14.582 6.543 14.582 14.582c0 1.967-0.384 3.876-1.145 5.673z"></path>
</svg>
<svg id="icon-bankCard" width="32" height="32" viewBox="0 0 32 32" x="0" y="84">
<path fill="#dadada" d="M15.857 0.141c-8.745 0-15.857 7.119-15.857 15.861s7.112 15.857 15.857 15.857c1.862 0 3.688-0.322 5.423-0.956 2.159-0.783 4.159-2.061 5.789-3.692 1.456-1.456 2.601-3.152 3.398-5.039 0.826-1.956 1.246-4.032 1.246-6.173 0-8.745-7.111-15.857-15.857-15.857zM29.301 21.675c-0.735 1.735-1.786 3.297-3.126 4.637-1.5 1.5-3.344 2.677-5.325 3.398-1.598 0.583-3.279 0.877-4.992 0.877-8.043 0-14.589-6.539-14.589-14.585s6.546-14.589 14.589-14.589 14.589 6.543 14.589 14.585c0 1.967-0.384 3.88-1.145 5.677z"></path>
<path fill="#dadada" d="M5.905 22.378c0 0.453 0.159 0.869 0.446 1.177 0.293 0.315 0.696 0.489 1.134 0.489h16.668c0.869 0 1.58-0.75 1.58-1.67v-7.231h-19.827v7.235zM6.996 16.234h17.65v6.144c0 0.319-0.221 0.58-0.489 0.58h-16.672c-0.272 0-0.489-0.261-0.489-0.58v-6.144z"></path>
<path fill="#dadada" d="M16.48 21.653h5.894c0.449 0 0.815-0.366 0.815-0.815v-1.663c0-0.449-0.366-0.815-0.815-0.815h-5.894c-0.449 0-0.815 0.366-0.815 0.815v1.663c0 0.449 0.366 0.815 0.815 0.815zM16.755 19.451h5.344v1.116h-5.344v-1.116z"></path>
<path fill="#dadada" d="M24.153 9.734h-16.668c-0.869 0-1.58 0.75-1.58 1.67v2.793h19.827v-2.793c0-0.92-0.706-1.67-1.58-1.67zM24.646 13.107h-17.65v-1.706c0-0.319 0.221-0.58 0.489-0.58h16.668c0.272 0 0.489 0.261 0.489 0.58v1.706z"></path>
</svg>
<svg id="icon-bankCard-red" width="32" height="32" viewBox="0 0 32 32" x="42" y="84">
<path fill="#ff8a10" d="M15.857 0.141c-8.745 0-15.857 7.119-15.857 15.861s7.112 15.857 15.857 15.857c1.862 0 3.688-0.322 5.423-0.956 2.159-0.783 4.159-2.061 5.789-3.692 1.456-1.456 2.601-3.152 3.398-5.039 0.826-1.956 1.246-4.032 1.246-6.173 0-8.745-7.111-15.857-15.857-15.857zM29.301 21.675c-0.735 1.735-1.786 3.297-3.126 4.637-1.5 1.5-3.344 2.677-5.325 3.398-1.598 0.583-3.279 0.877-4.992 0.877-8.043 0-14.589-6.539-14.589-14.585s6.546-14.589 14.589-14.589 14.589 6.543 14.589 14.585c0 1.967-0.384 3.88-1.145 5.677z"></path>
<path fill="#ff8a10" d="M5.905 22.378c0 0.453 0.159 0.869 0.446 1.177 0.293 0.315 0.696 0.489 1.134 0.489h16.668c0.869 0 1.58-0.75 1.58-1.67v-7.231h-19.827v7.235zM6.996 16.234h17.65v6.144c0 0.319-0.221 0.58-0.489 0.58h-16.672c-0.272 0-0.489-0.261-0.489-0.58v-6.144z"></path>
<path fill="#ff8a10" d="M16.48 21.653h5.894c0.449 0 0.815-0.366 0.815-0.815v-1.663c0-0.449-0.366-0.815-0.815-0.815h-5.894c-0.449 0-0.815 0.366-0.815 0.815v1.663c0 0.449 0.366 0.815 0.815 0.815zM16.755 19.451h5.344v1.116h-5.344v-1.116z"></path>
<path fill="#ff8a10" d="M24.153 9.734h-16.668c-0.869 0-1.58 0.75-1.58 1.67v2.793h19.827v-2.793c0-0.92-0.706-1.67-1.58-1.67zM24.646 13.107h-17.65v-1.706c0-0.319 0.221-0.58 0.489-0.58h16.668c0.272 0 0.489 0.261 0.489 0.58v1.706z"></path>
</svg>
<svg id="icon-add" width="32" height="32" viewBox="0 0 32 32" x="0" y="126">
<path fill="#dbdbdb" d="M15.857 7.093c-0.598 0-1.087 0.485-1.087 1.087l0.004 6.735-6.735-0.004c-0.598 0-1.087 0.485-1.087 1.087 0 0.598 0.485 1.087 1.087 1.087h6.731l0.004 6.735c0 0.598 0.485 1.087 1.087 1.087 0.301 0 0.572-0.12 0.768-0.319 0.196-0.196 0.319-0.467 0.319-0.768v-6.731h6.731c0.301 0 0.572-0.12 0.768-0.319 0.196-0.196 0.319-0.467 0.319-0.768 0-0.598-0.485-1.087-1.087-1.087h-6.735v-6.731c-0.004-0.601-0.489-1.090-1.087-1.090z"></path>
<path fill="#dbdbdb" d="M4.644 4.786c-6.184 6.18-6.184 16.245 0 22.429s16.245 6.18 22.425 0 6.18-16.245 0-22.425-16.245-6.184-22.425-0.004zM25.533 25.678c-5.336 5.336-14.017 5.333-19.349 0s-5.34-14.017-0.004-19.353 14.017-5.333 19.349 0 5.34 14.017 0.004 19.353z"></path>
</svg>
<svg id="icon-add-red" width="32" height="32" viewBox="0 0 32 32" x="42" y="126">
<path fill="#ea544a" d="M15.857 7.093c-0.598 0-1.087 0.485-1.087 1.087l0.004 6.735-6.735-0.004c-0.598 0-1.087 0.485-1.087 1.087 0 0.598 0.485 1.087 1.087 1.087h6.731l0.004 6.735c0 0.598 0.485 1.087 1.087 1.087 0.301 0 0.572-0.12 0.768-0.319 0.196-0.196 0.319-0.467 0.319-0.768v-6.731h6.731c0.301 0 0.572-0.12 0.768-0.319 0.196-0.196 0.319-0.467 0.319-0.768 0-0.598-0.485-1.087-1.087-1.087h-6.735v-6.731c-0.004-0.601-0.489-1.090-1.087-1.090z"></path>
<path fill="#ea544a" d="M4.644 4.786c-6.184 6.18-6.184 16.245 0 22.429s16.245 6.18 22.425 0 6.18-16.245 0-22.425-16.245-6.184-22.425-0.004zM25.533 25.678c-5.336 5.336-14.017 5.333-19.349 0s-5.34-14.017-0.004-19.353 14.017-5.333 19.349 0 5.34 14.017 0.004 19.353z"></path>
</svg>
<svg id="icon-close" width="32" height="32" viewBox="0 0 32 32" x="0" y="168">
<path fill="#dbdbdb" d="M22.153 9.702c-0.424-0.424-1.112-0.424-1.536 0l-4.76 4.764-4.76-4.764c-0.424-0.424-1.112-0.424-1.536 0s-0.424 1.112 0 1.536l4.76 4.76-4.76 4.764c-0.424 0.424-0.424 1.112 0 1.536 0.214 0.214 0.489 0.319 0.768 0.319s0.554-0.105 0.768-0.319l4.76-4.76 4.76 4.76c0.214 0.214 0.489 0.319 0.768 0.319s0.554-0.105 0.768-0.319c0.424-0.424 0.424-1.112 0-1.536l-4.76-4.76 4.76-4.76c0.424-0.428 0.424-1.116 0-1.54z"></path>
<path fill="#dbdbdb" d="M15.857 0.145c-8.742 0-15.857 7.112-15.857 15.857s7.115 15.853 15.857 15.853 15.857-7.115 15.857-15.857-7.115-15.853-15.857-15.853zM15.857 29.685c-7.546 0-13.683-6.141-13.683-13.683s6.137-13.687 13.683-13.687 13.683 6.141 13.683 13.683-6.137 13.687-13.683 13.687z"></path>
</svg>
<svg id="icon-close-red" width="32" height="32" viewBox="0 0 32 32" x="42" y="168">
<path fill="#ea544a" d="M22.153 9.702c-0.424-0.424-1.112-0.424-1.536 0l-4.76 4.764-4.76-4.764c-0.424-0.424-1.112-0.424-1.536 0s-0.424 1.112 0 1.536l4.76 4.76-4.76 4.764c-0.424 0.424-0.424 1.112 0 1.536 0.214 0.214 0.489 0.319 0.768 0.319s0.554-0.105 0.768-0.319l4.76-4.76 4.76 4.76c0.214 0.214 0.489 0.319 0.768 0.319s0.554-0.105 0.768-0.319c0.424-0.424 0.424-1.112 0-1.536l-4.76-4.76 4.76-4.76c0.424-0.428 0.424-1.116 0-1.54z"></path>
<path fill="#ea544a" d="M15.857 0.145c-8.742 0-15.857 7.112-15.857 15.857s7.115 15.853 15.857 15.853 15.857-7.115 15.857-15.857-7.115-15.853-15.857-15.853zM15.857 29.685c-7.546 0-13.683-6.141-13.683-13.683s6.137-13.687 13.683-13.687 13.683 6.141 13.683 13.683-6.137 13.687-13.683 13.687z"></path>
</svg>
<svg id="icon-email" width="32" height="32" viewBox="0 0 32 32" x="0" y="210">
<path fill="#dadada" d="M15.857 31.859c-8.745 0-15.857-7.115-15.857-15.857s7.112-15.861 15.857-15.861 15.857 7.112 15.857 15.857c0 2.141-0.42 4.217-1.246 6.173-0.797 1.887-1.942 3.583-3.398 5.039-1.63 1.63-3.63 2.909-5.789 3.692-1.735 0.634-3.561 0.956-5.423 0.956zM15.857 1.413c-8.043 0-14.589 6.543-14.589 14.589s6.546 14.585 14.589 14.585c1.714 0 3.395-0.293 4.992-0.877 1.982-0.721 3.826-1.898 5.325-3.398 1.34-1.34 2.391-2.902 3.126-4.637 0.761-1.797 1.145-3.71 1.145-5.677 0-8.043-6.546-14.585-14.589-14.585z"></path>
<path fill="#dadada" d="M25.852 24.066h-19.53c-0.351 0-0.634-0.283-0.634-0.634v-11.205c0-0.203 0.098-0.395 0.261-0.514s0.377-0.152 0.569-0.091l9.238 3.032 9.908-3.036c0.192-0.058 0.402-0.022 0.562 0.098 0.163 0.12 0.257 0.308 0.257 0.511v11.205c0.004 0.351-0.279 0.634-0.63 0.634zM6.956 22.798h18.262v-9.713l-9.282 2.844c-0.127 0.040-0.261 0.036-0.384-0.004l-8.597-2.822v9.695z"></path>
<path fill="#dadada" d="M25.852 11.021h-19.53c-0.351 0-0.634-0.283-0.634-0.634s0.283-0.634 0.634-0.634h19.53c0.351 0 0.634 0.283 0.634 0.634s-0.283 0.634-0.634 0.634z"></path>
</svg>
<svg id="icon-email-red" width="32" height="32" viewBox="0 0 32 32" x="42" y="210">
<path fill="#ea544a" d="M15.857 31.859c-8.745 0-15.857-7.115-15.857-15.857s7.112-15.861 15.857-15.861 15.857 7.112 15.857 15.857c0 2.141-0.42 4.217-1.246 6.173-0.797 1.887-1.942 3.583-3.398 5.039-1.63 1.63-3.63 2.909-5.789 3.692-1.735 0.634-3.561 0.956-5.423 0.956zM15.857 1.413c-8.043 0-14.589 6.543-14.589 14.589s6.546 14.585 14.589 14.585c1.714 0 3.395-0.293 4.992-0.877 1.982-0.721 3.826-1.898 5.325-3.398 1.34-1.34 2.391-2.902 3.126-4.637 0.761-1.797 1.145-3.71 1.145-5.677 0-8.043-6.546-14.585-14.589-14.585z"></path>
<path fill="#ea544a" d="M25.852 24.066h-19.53c-0.351 0-0.634-0.283-0.634-0.634v-11.205c0-0.203 0.098-0.395 0.261-0.514s0.377-0.152 0.569-0.091l9.238 3.032 9.908-3.036c0.192-0.058 0.402-0.022 0.562 0.098 0.163 0.12 0.257 0.308 0.257 0.511v11.205c0.004 0.351-0.279 0.634-0.63 0.634zM6.956 22.798h18.262v-9.713l-9.282 2.844c-0.127 0.040-0.261 0.036-0.384-0.004l-8.597-2.822v9.695z"></path>
<path fill="#ea544a" d="M25.852 11.021h-19.53c-0.351 0-0.634-0.283-0.634-0.634s0.283-0.634 0.634-0.634h19.53c0.351 0 0.634 0.283 0.634 0.634s-0.283 0.634-0.634 0.634z"></path>
</svg>
<svg id="icon-arrowtop" width="32" height="32" viewBox="0 0 32 32" x="0" y="252">
<path fill="#989898" d="M1 22.8c0-0.3 0.1-0.6 0.4-0.9l13.7-13.7c0.5-0.5 1.3-0.5 1.8 0l13.7 13.8c0.5 0.5 0.5 1.3 0 1.8s-1.3 0.5-1.8 0l-12.9-12.9-12.9 12.9c-0.5 0.5-1.3 0.5-1.8 0-0.1-0.3-0.2-0.7-0.2-1z"></path>
</svg>
<svg id="icon-arrowtop-white" width="32" height="32" viewBox="0 0 32 32" x="42" y="252">
<path fill="#fff" d="M1 22.8c0-0.3 0.1-0.6 0.4-0.9l13.7-13.7c0.5-0.5 1.3-0.5 1.8 0l13.7 13.8c0.5 0.5 0.5 1.3 0 1.8s-1.3 0.5-1.8 0l-12.9-12.9-12.9 12.9c-0.5 0.5-1.3 0.5-1.8 0-0.1-0.3-0.2-0.7-0.2-1z"></path>
</svg>
<svg id="icon-customer-service-qq" width="32" height="32" viewBox="0 0 32 32" x="0" y="294">
<path fill="#999" d="M19.6 29c-1.5 0-2.8-0.3-3.8-0.8-0.9 0.5-2.3 0.8-3.8 0.8-2.8 0-5.1-1.1-5.1-2.5 0-0.9 1-1.7 2.5-2.1-0.6-0.5-1.1-1-1.4-1.6-0.7 0.7-1.3 1.1-1.9 1.1-0.1 0-0.3 0-0.4-0.1-1.2-0.5-0.8-3.7 0.8-7.1 0.5-1.1 1.3-2.1 2.1-2.9-0.1-0.5-0.1-1-0.1-1.6 0-5.5 3.3-9.3 7.4-9.3s7.4 3.8 7.4 9.3c0 0.3 0 0.6 0 0.9 0.9 1 1.9 2.2 2.6 3.7 1.5 3.4 1.7 6.6 0.5 7.1-0.1 0-0.2 0.1-0.3 0.1-0.5 0-1.2-0.4-1.9-1.2-0.4 0.6-0.9 1.2-1.5 1.7 1.3 0.4 2.2 1.2 2.2 2-0.2 1.4-2.5 2.5-5.3 2.5zM19.6 27.5c2 0 3.2-0.6 3.6-1-0.1-0.1-0.5-0.4-1.1-0.6l-2.7-0.9 2.2-1.7c0.5-0.4 0.9-0.8 1.2-1.3l1-1.7 1.3 1.5c0.2 0.2 0.3 0.3 0.4 0.4 0-0.9-0.2-2.6-1.1-4.8-0.5-1.1-1.2-2.2-2.3-3.3l-0.5-0.5v-0.7c0-0.2 0-0.5 0-0.8 0-4.4-2.5-7.8-5.9-7.8s-5.9 3.3-5.9 7.8c0 0.5 0 0.9 0.1 1.3l0.1 0.8-0.5 0.6c-0.8 0.8-1.4 1.7-1.8 2.5-1 2.1-1.3 3.8-1.3 4.7 0.1-0.1 0.2-0.2 0.4-0.3l1.3-1.3 1 1.6c0.3 0.4 0.6 0.8 1.1 1.2l2.2 1.8-2.8 0.8c-0.8 0.2-1.2 0.5-1.3 0.7 0.3 0.3 1.5 1 3.6 1 1.2 0 2.3-0.2 3.1-0.6l0.7-0.4 0.7 0.4c0.8 0.4 2 0.6 3.2 0.6z"></path>
</svg>
<svg id="icon-customer-service-qq-white" width="32" height="32" viewBox="0 0 32 32" x="42" y="294">
<path fill="#fff" d="M19.6 29c-1.5 0-2.8-0.3-3.8-0.8-0.9 0.5-2.3 0.8-3.8 0.8-2.8 0-5.1-1.1-5.1-2.5 0-0.9 1-1.7 2.5-2.1-0.6-0.5-1.1-1-1.4-1.6-0.7 0.7-1.3 1.1-1.9 1.1-0.1 0-0.3 0-0.4-0.1-1.2-0.5-0.8-3.7 0.8-7.1 0.5-1.1 1.3-2.1 2.1-2.9-0.1-0.5-0.1-1-0.1-1.6 0-5.5 3.3-9.3 7.4-9.3s7.4 3.8 7.4 9.3c0 0.3 0 0.6 0 0.9 0.9 1 1.9 2.2 2.6 3.7 1.5 3.4 1.7 6.6 0.5 7.1-0.1 0-0.2 0.1-0.3 0.1-0.5 0-1.2-0.4-1.9-1.2-0.4 0.6-0.9 1.2-1.5 1.7 1.3 0.4 2.2 1.2 2.2 2-0.2 1.4-2.5 2.5-5.3 2.5zM19.6 27.5c2 0 3.2-0.6 3.6-1-0.1-0.1-0.5-0.4-1.1-0.6l-2.7-0.9 2.2-1.7c0.5-0.4 0.9-0.8 1.2-1.3l1-1.7 1.3 1.5c0.2 0.2 0.3 0.3 0.4 0.4 0-0.9-0.2-2.6-1.1-4.8-0.5-1.1-1.2-2.2-2.3-3.3l-0.5-0.5v-0.7c0-0.2 0-0.5 0-0.8 0-4.4-2.5-7.8-5.9-7.8s-5.9 3.3-5.9 7.8c0 0.5 0 0.9 0.1 1.3l0.1 0.8-0.5 0.6c-0.8 0.8-1.4 1.7-1.8 2.5-1 2.1-1.3 3.8-1.3 4.7 0.1-0.1 0.2-0.2 0.4-0.3l1.3-1.3 1 1.6c0.3 0.4 0.6 0.8 1.1 1.2l2.2 1.8-2.8 0.8c-0.8 0.2-1.2 0.5-1.3 0.7 0.3 0.3 1.5 1 3.6 1 1.2 0 2.3-0.2 3.1-0.6l0.7-0.4 0.7 0.4c0.8 0.4 2 0.6 3.2 0.6z"></path>
</svg>
<svg id="icon-weixin" width="32" height="32" viewBox="0 0 32 32" x="0" y="336">
<path fill="#8dc81b" d="M17.3 16.6c0 0.4 0.3 0.6 0.6 0.6 0.4 0 0.6-0.3 0.6-0.6 0-0.4-0.3-0.6-0.6-0.6s-0.6 0.2-0.6 0.6zM21.1 16.6c0 0.4 0.3 0.6 0.6 0.6s0.6-0.3 0.6-0.6c0-0.4-0.3-0.6-0.6-0.6s-0.6 0.2-0.6 0.6zM9.6 11.8c0-0.5 0.4-1 1-1s1 0.4 1 1c0 0.5-0.4 1-1 1s-1-0.5-1-1zM14.7 11.8c0-0.5 0.4-1 1-1 0.5 0 1 0.4 1 1 0 0.5-0.4 1-1 1-0.5-0.1-1-0.5-1-1zM7 14c0 1.6 0.9 3.2 2.3 4.1 0.1 0 0.4 0.2 0.4 0.5-0.1 0.5-0.2 0.9-0.2 0.9s0.4-0.5 0.7-0.7c0.1-0.1 0.4 0 0.5 0 0.7 0.3 1.5 0.4 2.4 0.4 0.3 0 0.7 0 1-0.1 0-0.2 0-0.4 0-0.6 0-2.5 2.2-4.6 5.1-5-0.3-2.6-2.9-4.5-6-4.5-3.4-0.1-6.2 2.2-6.2 5zM8.3 21.2c-0.2-0.1 0.7-1.9 0.5-2.1-1.8-1.2-3-3-3-5.1 0-3.5 3.3-6.4 7.4-6.4 3.8 0 7 2.5 7.3 5.8 3.2 0.1 5.8 2.4 5.8 5.1 0 1.7-1 3.2-2.5 4.1-0.3 0.2 0.6 1.6 0.3 1.8-0.1 0-0.5-0.3-0.9-0.5-0.4-0.3-0.8-0.6-0.9-0.6-0.6 0.2-1.3 0.3-2 0.3-2.6 0-4.9-1.4-5.7-3.3-0.4 0.1-0.9 0.1-1.3 0.1-0.9 0-1.8-0.1-2.6-0.4-0.2-0.1-0.7 0.3-1.1 0.6-0.6 0.3-1 0.6-1.3 0.6 0 0 0 0 0 0zM0 16c0 8.8 7.2 16 16 16s16-7.2 16-16c0-8.8-7.2-16-16-16s-16 7.1-16 16z"></path>
</svg>
<svg id="icon-weibo" width="32" height="32" viewBox="0 0 32 32" x="42" y="336">
<path fill="#f56467" d="M11.8 18.2c-0.6 0.3-1 0.9-0.8 1.4s0.9 0.6 1.6 0.3c0.6-0.3 1-0.9 0.8-1.4-0.1-0.3-0.5-0.5-0.9-0.5-0.3 0.1-0.5 0.1-0.7 0.2zM13.4 17.9c0 0.4 0.3 0.6 0.6 0.6s0.6-0.3 0.6-0.6c0-0.4-0.3-0.6-0.6-0.6s-0.6 0.2-0.6 0.6zM9.6 19.3c-0.3-1.7 1.1-3.5 3.2-3.9s4 0.7 4.4 2.4c0.3 1.7-1.1 3.5-3.2 3.9-0.3 0.1-0.6 0.1-0.9 0.1-1.7 0-3.2-1-3.5-2.5zM13.5 14.1c-3.5 0.5-6.1 2.7-5.8 5s3.4 3.7 6.9 3.2c3.5-0.5 6.1-2.7 5.8-5-0.3-2-2.6-3.3-5.6-3.3-0.4 0-0.8 0-1.3 0.1zM20.5 9.5c0 0 1.3-0.4 2.5 0.7 1.2 1 0.7 2.8 0.7 2.8 0 0.4-0.4 0.6-0.7 0.6h-0.1c-0.4 0-0.6-0.3-0.5-0.6 0 0 0.4-1-0.2-1.7s-1.7-0.6-1.7-0.6c-0.3 0-0.6-0.2-0.6-0.5 0 0 0 0.1 0 0.1v-0.2c0 0 0 0.1 0 0.1 0-0.4 0.3-0.7 0.6-0.7zM4.5 17.9c0-3.5 6.7-9.1 9.2-9.1 1.1 0 3.2 0.8 1.7 3.3 0 0.1 0.5-0.2 1.2-0.4 1.1-0.3 2.8-0.7 3.9 0 1.9 1.1 0 2.8 0 3s3.7 0.2 3.7 3.2c0 3.5-4.4 6.4-9.9 6.4s-9.8-2.9-9.8-6.4zM20.2 6.3c0 0 2.8-0.3 5 1.7 2.1 2 1.5 5.3 1.5 5.3 0 0.5-0.5 0.9-1 0.9 0 0 0.1 0 0.1 0h-0.2c0 0 0.1 0 0.1 0-0.5-0.1-0.8-0.5-0.7-0.9 0 0 0.5-2-0.7-3.8-1.3-1.8-4-1.5-4-1.5-0.5 0-0.9-0.4-1-0.8 0 0 0 0.1 0 0.1v-0.2c0 0 0 0.1 0 0.1 0-0.5 0.4-0.9 0.9-0.9zM0 16c0 8.8 7.2 16 16 16s16-7.2 16-16c0-8.8-7.2-16-16-16s-16 7.1-16 16z"></path>
</svg>
<svg id="icon-qq" width="32" height="32" viewBox="0 0 32 32" x="0" y="378">
<path fill="#68a5e1" d="M6.8 20.9c-0.8-0.6-0.7-2-0.2-3.4s1.8-2.7 1.8-3c0.1-1.1-0.1-1.3 0-1.6 0.2-0.6 0.5-0.4 0.5-0.7 0-4.2 3.2-7.7 7-7.7 3.9 0 7 3.4 7 7.7 0 0.2 0.4 0 0.6 0.7 0 0.2 0.1 0.7 0 1.6 0 0.4 1.1 0.9 1.6 3 0.6 2.1 0 3.2-0.3 3.4-0.4 0.3-0.8-0.2-1.1-0.7s-0.5-1-0.6-0.8c-0.3 0.9-0.5 1.6-1.4 2.6 0 0.1 1.1 0.5 1.4 1.3s0.9 2.1-2.9 2.5c-1.2 0.1-2.2-0.2-2.9-0.6-0.6-0.3-1-0.6-1.1-0.6-0.3 0-0.2 0-0.5 0s-0.3 0-0.5 0c-0.1 0-0.8 1.2-4.1 1.2-2.6 0-3.2-1.6-2.7-2.5s1.4-1.1 1.3-1.3c-0.6-0.7-1-1.4-1.3-2.1-0.1-0.2-0.1-0.3-0.2-0.5 0-0.2-0.2 0.3-0.5 0.8-0.2 0.4-0.5 0.8-0.8 0.8 0.1-0.1 0-0.1-0.1-0.1zM0 16c0 8.8 7.2 16 16 16s16-7.2 16-16c0-8.8-7.2-16-16-16s-16 7.1-16 16z"></path>
</svg>
<svg id="icon-customer-service" width="32" height="32" viewBox="0 0 32 32" x="42" y="378">
<path fill="#999" d="M23.6 18.9v8.4c2.3 0 4.2-1.9 4.2-4.2s-1.9-4.2-4.2-4.2zM4.2 23.1c0 2.3 1.9 4.2 4.2 4.2v-8.4c-2.3 0-4.2 1.9-4.2 4.2zM29.5 23.1c0 3.2-2.6 5.9-5.9 5.9-0.1 0-0.2 0-0.3 0 0 0-0.1 0-0.1 0h-0.9c-0.2 0-0.4-0.2-0.4-0.4v-11c0-0.2 0.2-0.4 0.4-0.4h0.8c0 0 0.1 0 0.1 0 0.1 0 0.2 0 0.3 0 0.7 0 1.4 0.2 2.1 0.4 0.3-0.9 0.4-1.9 0.4-2.9 0-5.6-4.5-10.1-10.1-10.1s-10.1 4.5-10.1 10.1c0 1 0.2 2 0.4 2.9 0.7-0.2 1.4-0.4 2.1-0.4 0.1 0 0.2 0 0.3 0 0 0 0.1 0 0.1 0h0.8c0.2 0 0.4 0.2 0.4 0.4v10.9c0 0.2-0.2 0.4-0.4 0.4h-0.8c0 0-0.1 0-0.1 0-0.1 0-0.2 0-0.3 0-3.3 0-5.9-2.6-5.9-5.9 0-1.9 0.9-3.6 2.3-4.6-0.4-1.2-0.6-2.4-0.6-3.8 0-6.5 5.3-11.7 11.8-11.7s11.8 5.3 11.8 11.7c0 1.3-0.2 2.6-0.6 3.8 1.5 1.1 2.4 2.8 2.4 4.7z"></path>
</svg>
<svg id="icon-customer-service-white" width="32" height="32" viewBox="0 0 32 32" x="0" y="420">
<path fill="#fff" d="M23.6 18.9v8.4c2.3 0 4.2-1.9 4.2-4.2s-1.9-4.2-4.2-4.2zM4.2 23.1c0 2.3 1.9 4.2 4.2 4.2v-8.4c-2.3 0-4.2 1.9-4.2 4.2zM29.5 23.1c0 3.2-2.6 5.9-5.9 5.9-0.1 0-0.2 0-0.3 0 0 0-0.1 0-0.1 0h-0.9c-0.2 0-0.4-0.2-0.4-0.4v-11c0-0.2 0.2-0.4 0.4-0.4h0.8c0 0 0.1 0 0.1 0 0.1 0 0.2 0 0.3 0 0.7 0 1.4 0.2 2.1 0.4 0.3-0.9 0.4-1.9 0.4-2.9 0-5.6-4.5-10.1-10.1-10.1s-10.1 4.5-10.1 10.1c0 1 0.2 2 0.4 2.9 0.7-0.2 1.4-0.4 2.1-0.4 0.1 0 0.2 0 0.3 0 0 0 0.1 0 0.1 0h0.8c0.2 0 0.4 0.2 0.4 0.4v10.9c0 0.2-0.2 0.4-0.4 0.4h-0.8c0 0-0.1 0-0.1 0-0.1 0-0.2 0-0.3 0-3.3 0-5.9-2.6-5.9-5.9 0-1.9 0.9-3.6 2.3-4.6-0.4-1.2-0.6-2.4-0.6-3.8 0-6.5 5.3-11.7 11.8-11.7s11.8 5.3 11.8 11.7c0 1.3-0.2 2.6-0.6 3.8 1.5 1.1 2.4 2.8 2.4 4.7z"></path>
</svg>
<svg id="icon-data-1" width="32" height="32" viewBox="0 0 32 32" x="42" y="420">
<path fill="#dcdcdc" d="M18.7 17.2c1.2-0.9 2.1-2.3 2.1-3.9 0-2.6-2.1-4.8-4.8-4.8-2.6 0-4.8 2.1-4.8 4.8 0 1.6 0.8 3.1 2.1 3.9-1.8 0.9-3.4 2.7-4.3 5.1-0.1 0.4 0 0.8 0.4 1 0.1 0 0.2 0 0.3 0 0.3 0 0.6-0.2 0.7-0.5 1.1-2.9 3.2-4.8 5.6-4.8 2.3 0 4.4 1.8 5.6 4.8 0.1 0.4 0.6 0.6 1 0.4 0.4-0.1 0.6-0.6 0.4-1-1-2.3-2.5-4.1-4.3-5zM16 16.7c-1.8 0-3.3-1.5-3.3-3.3 0-1.9 1.5-3.3 3.3-3.3s3.3 1.5 3.3 3.3-1.5 3.3-3.3 3.3z"></path>
<path fill="#dcdcdc" d="M16 3c-7.2 0-13 5.8-13 13s5.8 13 13 13 13-5.8 13-13-5.8-13-13-13zM16 28c-6.6 0-12-5.4-12-12s5.4-12 12-12 12 5.4 12 12-5.4 12-12 12z"></path>
</svg>
<svg id="icon-data-2" width="32" height="32" viewBox="0 0 32 32" x="0" y="462">
<path fill="#dcdcdc" d="M21.4 8h-1.3l-4.1 8-4-8h-1.4l4.8 9.2v0.7h-3.2v0.8h3.2v1.3h-3.2v0.9h3.2v3.1h1.3v-3.1h3.2v-0.9h-3.2v-1.3h3.2v-0.8h-3.2v-0.7z"></path>
<path fill="#dcdcdc" d="M16 3c-7.2 0-13 5.8-13 13s5.8 13 13 13 13-5.8 13-13-5.8-13-13-13zM16 28c-6.6 0-12-5.4-12-12s5.4-12 12-12 12 5.4 12 12-5.4 12-12 12z"></path>
</svg>
<svg id="icon-data-3" width="32" height="32" viewBox="0 0 32 32" x="42" y="462">
<path fill="#dcdcdc" d="M9.8 19l4.3-3.8 2.5 2.1 5.3-6.4h0.1c0.1-0.1 0.2-0.2 0.2-0.4 0.1-0.1 0.1-0.4-0.1-0.5-0.1-0.1-0.4-0.1-0.6 0.1l-0.1 0.1-2.4 1.2c-0.2 0.1-0.3 0.4-0.2 0.6 0.1 0.1 0.2 0.2 0.4 0.2 0.1 0 0.1 0 0.2 0l0.6-0.3-3.5 4.2-2.4-2-4.9 4.4c-0.2 0.1-0.2 0.4 0 0.6 0 0.1 0.2 0.2 0.3 0.2s0.2-0.1 0.3-0.3z"></path>
<path fill="#dcdcdc" d="M13.8 18.2l-4.5 3.8h13.7v-9.2l-6.2 7.7z"></path>
<path fill="#dcdcdc" d="M16 3c-7.2 0-13 5.8-13 13s5.8 13 13 13 13-5.8 13-13-5.8-13-13-13zM16 28c-6.6 0-12-5.4-12-12s5.4-12 12-12 12 5.4 12 12-5.4 12-12 12z"></path>
</svg>
<svg id="icon-data-4" width="32" height="32" viewBox="0 0 32 32" x="0" y="504">
<path fill="#dcdcdc" d="M20.6 12.7c-0.2 0-0.5 0-0.7 0.1-0.3-2.2-2.2-3.9-4.5-3.9-2.1 0-4 1.5-4.5 3.5-1.7 0.4-2.9 1.7-2.9 3.1 0 1.8 1.9 3.3 4.2 3.3 1 0 1.9-0.3 2.7-0.8 0.1 0 0.2 0 0.3 0 0.7 0.5 1.5 0.7 2.4 0.7 0.5 0 1.1-0.1 1.6-0.3 0.5 0.2 0.9 0.3 1.4 0.3 1.9 0 3.4-1.4 3.4-3s-1.5-3-3.4-3zM20.6 18c-0.4 0-0.9-0.1-1.3-0.3-0.1 0-0.1 0-0.2 0s-0.1 0-0.2 0c-0.4 0.2-0.9 0.3-1.4 0.3-0.8 0-1.5-0.2-2-0.6-0.1 0-0.1-0.1-0.2-0.1-0.2 0-0.3 0-0.5 0-0.1 0-0.2 0-0.3 0.1-0.6 0.5-1.5 0.7-2.3 0.7-1.9 0-3.4-1.1-3.4-2.5 0-1.1 1-2.1 2.5-2.4 0.2 0 0.3-0.2 0.3-0.3 0.3-1.8 1.9-3.2 3.8-3.2 2.1 0 3.7 1.6 3.8 3.7 0 0.1 0.1 0.2 0.2 0.3s0.2 0.1 0.3 0c0.3-0.1 0.6-0.1 0.9-0.1 1.5 0 2.6 1 2.6 2.3 0 1.1-1.1 2.1-2.6 2.1z"></path>
<path fill="#dcdcdc" d="M11.8 19.1c-0.2 0-0.4 0.2-0.4 0.4v3.2c0 0.2 0.2 0.4 0.4 0.4s0.4-0.2 0.4-0.4v-3.2c0-0.2-0.2-0.4-0.4-0.4z"></path>
<path fill="#dcdcdc" d="M15.8 19.1c-0.2 0-0.4 0.2-0.4 0.4v3.2c0 0.2 0.2 0.4 0.4 0.4s0.4-0.2 0.4-0.4v-3.2c0-0.2-0.2-0.4-0.4-0.4z"></path>
<path fill="#dcdcdc" d="M19.8 19.1c-0.2 0-0.4 0.2-0.4 0.4v3.2c0 0.2 0.2 0.4 0.4 0.4s0.4-0.2 0.4-0.4v-3.2c0-0.2-0.2-0.4-0.4-0.4z"></path>
<path fill="#dcdcdc" d="M16 2.9c-7.2 0-13 5.8-13 13s5.8 13 13 13 13-5.8 13-13c0-7.1-5.8-13-13-13zM16 27.9c-6.6 0-12-5.4-12-12s5.4-12 12-12 12 5.4 12 12c0 6.6-5.4 12-12 12z"></path>
</svg>
<svg id="icon-ewm" width="32" height="32" viewBox="0 0 32 32" x="42" y="504">
<path fill="#999" d="M6.2 6.3h3.3v3.3h-3.3v-3.3z"></path>
<path fill="#999" d="M6.2 22.5h3.3v3.3h-3.3v-3.3z"></path>
<path fill="#999" d="M9.5 19.3h-6.5v9.8h9.8v-13.1h-3.3v3.3zM10.9 27.2h-6.1v-6.1h6.1v6.1z"></path>
<path fill="#999" d="M12.7 9.5v-6.5h-9.8v13.1h3.3v-3.3h9.8v-3.3h-3.3zM10.9 10.9h-6.1v-6.1h6.1v6.1z"></path>
<path fill="#999" d="M29 12.8v-9.8h-13.1v3.3h3.3v6.5h3.3v3.3h3.3v-3.3h3.2zM21.1 10.9v-6.1h6.1v6.1h-6.1z"></path>
<path fill="#999" d="M22.5 6.3h3.3v3.3h-3.3v-3.3z"></path>
<path fill="#999" d="M16 25.8h3.3v3.3h-3.3v-3.3z"></path>
<path fill="#999" d="M25.4 19.3h-2.9v-3.3h-3.3v3.3h-3.2v3.2h6.5v6.5h6.5v-3.2h-3.3v-3.3h3.3v-6.5h-3.3v3.3z"></path>
<path fill="#999" d="M16 12.8h3.3v3.3h-3.3v-3.3z"></path>
</svg>
<svg id="icon-ewm-white" width="32" height="32" viewBox="0 0 32 32" x="0" y="546">
<path fill="#fff" d="M6.2 6.3h3.3v3.3h-3.3v-3.3z"></path>
<path fill="#fff" d="M6.2 22.5h3.3v3.3h-3.3v-3.3z"></path>
<path fill="#fff" d="M9.5 19.3h-6.5v9.8h9.8v-13.1h-3.3v3.3zM10.9 27.2h-6.1v-6.1h6.1v6.1z"></path>
<path fill="#fff" d="M12.7 9.5v-6.5h-9.8v13.1h3.3v-3.3h9.8v-3.3h-3.3zM10.9 10.9h-6.1v-6.1h6.1v6.1z"></path>
<path fill="#fff" d="M29 12.8v-9.8h-13.1v3.3h3.3v6.5h3.3v3.3h3.3v-3.3h3.2zM21.1 10.9v-6.1h6.1v6.1h-6.1z"></path>
<path fill="#fff" d="M22.5 6.3h3.3v3.3h-3.3v-3.3z"></path>
<path fill="#fff" d="M16 25.8h3.3v3.3h-3.3v-3.3z"></path>
<path fill="#fff" d="M25.4 19.3h-2.9v-3.3h-3.3v3.3h-3.2v3.2h6.5v6.5h6.5v-3.2h-3.3v-3.3h3.3v-6.5h-3.3v3.3z"></path>
<path fill="#fff" d="M16 12.8h3.3v3.3h-3.3v-3.3z"></path>
</svg>
</svg>
